<svg xmlns="http://www.w3.org/2000/svg" xmlns:xlink="http://www.w3.org/1999/xlink" version="1.1" x="0px" y="0px" viewBox="0 0 100 125" style="enable-background:new 0 0 100 100;" xml:space="preserve"><style type="text/css">
	.st0{fill-rule:evenodd;clip-rule:evenodd;}
</style><path d="M14.39,35.25h20.33c0.62,0,1.12-0.5,1.12-1.12V13.96c0-0.62-0.5-1.12-1.12-1.12H14.39c-0.62,0-1.12,0.5-1.12,1.12v20.18  C13.27,34.75,13.77,35.25,14.39,35.25z M24.55,23.18c-1.14,0-2.08-0.93-2.08-2.08s0.93-2.08,2.08-2.08c1.14,0,2.08,0.93,2.08,2.08  S25.69,23.18,24.55,23.18z M30.25,32.65v0.37h-11.4v-0.37c0-3.14,2.56-5.7,5.7-5.7S30.25,29.5,30.25,32.65z M15.51,15.08h18.09  v17.94h-1.1v-0.37c0-3.72-2.57-6.84-6.03-7.7c1.42-0.71,2.4-2.16,2.4-3.85c0-2.38-1.94-4.31-4.31-4.31c-2.38,0-4.31,1.94-4.31,4.31  c0,1.69,0.98,3.14,2.4,3.85c-3.46,0.86-6.03,3.98-6.03,7.7v0.37h-1.1V15.08z M92.39,60.13H82.03v-4.17c0-2.36-1.92-4.28-4.28-4.28  h-8.56V8.95c0-2.68-2.18-4.85-4.85-4.85H8.95c-2.68,0-4.85,2.18-4.85,4.85v63.59c0,0.3,0.12,0.58,0.33,0.79L17.5,86.41  c0.21,0.21,0.49,0.33,0.79,0.33h32.34v5.66c0,1.94,1.58,3.51,3.51,3.51h36.13c1.94,0,3.51-1.58,3.51-3.51v-18.2  c1.27-0.55,2.12-1.79,2.12-3.22v-7.33C95.91,61.71,94.33,60.13,92.39,60.13z M93.67,63.64v7.33c0,0.61-0.4,1.11-0.99,1.24  c-0.91,0.2-1.87,0.4-2.86,0.58v-2.23c0-0.62-0.5-1.12-1.12-1.12h-3.91c-0.62,0-1.12,0.5-1.12,1.12v3.21  c-4.41,0.58-8.8,0.9-11.62,0.83c-0.02,0-0.03,0-0.05,0c-2.83,0.06-7.21-0.26-11.62-0.83v-3.21c0-0.62-0.5-1.12-1.12-1.12h-3.91  c-0.62,0-1.12,0.5-1.12,1.12v2.23c-0.99-0.19-1.95-0.38-2.86-0.58c-0.59-0.13-0.99-0.63-0.99-1.24v-7.33c0-0.7,0.57-1.27,1.27-1.27  h40.76C93.1,62.37,93.67,62.94,93.67,63.64z M87.58,71.69v4.95c0,0.46-0.38,0.84-0.84,0.84s-0.84-0.38-0.84-0.84v-4.95H87.58z   M58.13,71.69v4.95c0,0.46-0.38,0.84-0.84,0.84s-0.84-0.38-0.84-0.84v-4.95H58.13z M79.79,55.96v4.17H64.24v-4.17  c0-1.12,0.91-2.04,2.04-2.04h11.47C78.88,53.92,79.79,54.84,79.79,55.96z M17.18,82.91l-9.26-9.26h6.65c1.44,0,2.61,1.17,2.61,2.61  V82.91z M19.42,84.5v-8.23c0-2.68-2.18-4.85-4.85-4.85H6.33V8.95c0-1.44,1.17-2.61,2.61-2.61h55.4c1.44,0,2.61,1.17,2.61,2.61v42.74  h-0.68c-2.36,0-4.28,1.92-4.28,4.28v4.17H51.63c-1.94,0-3.51,1.58-3.51,3.51v7.33c0,1.57,1.03,2.91,2.52,3.36V84.5H19.42z   M90.27,93.67H54.15c-0.7,0-1.27-0.57-1.27-1.27V74.82c0.43,0.09,0.89,0.17,1.34,0.25v1.56c0,1.7,1.38,3.08,3.08,3.08  c1.7,0,3.08-1.38,3.08-3.08v-0.6c4.45,0.57,8.73,0.88,11.65,0.81c0.25,0.01,0.51,0.01,0.78,0.01c2.87,0,6.8-0.3,10.87-0.82v0.6  c0,1.7,1.38,3.08,3.08,3.08c1.7,0,3.08-1.38,3.08-3.08v-1.56c0.59-0.11,1.17-0.22,1.73-0.34v17.66  C91.55,93.1,90.98,93.67,90.27,93.67z M13.27,48.96c0-0.62,0.5-1.12,1.12-1.12H58.9c0.62,0,1.12,0.5,1.12,1.12s-0.5,1.12-1.12,1.12  H14.39C13.77,50.08,13.27,49.58,13.27,48.96z M13.27,55.84c0-0.62,0.5-1.12,1.12-1.12H58.9c0.62,0,1.12,0.5,1.12,1.12  s-0.5,1.12-1.12,1.12H14.39C13.77,56.96,13.27,56.45,13.27,55.84z M37.76,62.71c0,0.62-0.5,1.12-1.12,1.12H14.39  c-0.62,0-1.12-0.5-1.12-1.12s0.5-1.12,1.12-1.12h22.26C37.26,61.59,37.76,62.09,37.76,62.71z M48.14,35.25h2.6  c1.03,0,1.87-0.84,1.87-1.87V22.37c0-1.04-0.84-1.88-1.88-1.88h-2.57c-1.04,0-1.88,0.84-1.88,1.88v11.02  C46.27,34.42,47.11,35.25,48.14,35.25z M48.51,22.73h1.85v10.29h-1.85V22.73z M40.71,35.25h2.6c1.03,0,1.87-0.84,1.87-1.87v-7.86  c0-1.04-0.84-1.88-1.88-1.88h-2.57c-1.04,0-1.88,0.84-1.88,1.88v7.86C38.84,34.42,39.68,35.25,40.71,35.25z M41.08,25.89h1.85v7.13  h-1.85V25.89z M55.56,35.25h2.6c1.03,0,1.87-0.84,1.87-1.87V19.21c0-1.04-0.84-1.88-1.88-1.88h-2.57c-1.04,0-1.88,0.84-1.88,1.88  v14.18C53.69,34.42,54.53,35.25,55.56,35.25z M55.93,19.57h1.85v13.45h-1.85V19.57z M13.27,42.08c0-0.62,0.5-1.12,1.12-1.12H58.9  c0.62,0,1.12,0.5,1.12,1.12c0,0.62-0.5,1.12-1.12,1.12H14.39C13.77,43.2,13.27,42.7,13.27,42.08z"/><text x="0" y="115" fill="#000000" font-size="5px" font-weight="bold" font-family="'Helvetica Neue', Helvetica, Arial-Unicode, Arial, Sans-serif">Created by Hanbai</text><text x="0" y="120" fill="#000000" font-size="5px" font-weight="bold" font-family="'Helvetica Neue', Helvetica, Arial-Unicode, Arial, Sans-serif">from the Noun Project</text></svg>